<svg width="160" height="160" viewBox="0 0 160 160" fill="none" xmlns="http://www.w3.org/2000/svg">
  <rect width="160" height="160" rx="40" fill="url(#bg)"/>
  <circle cx="56" cy="58" r="16" fill="#86EFAC"/>
  <circle cx="104" cy="58" r="16" fill="#86EFAC"/>
  <circle cx="80" cy="92" r="42" fill="#4ADE80"/>
  <circle cx="56" cy="58" r="9" fill="#F8FAFC"/>
  <circle cx="104" cy="58" r="9" fill="#F8FAFC"/>
  <circle cx="56" cy="58" r="4" fill="#14532D"/>
  <circle cx="104" cy="58" r="4" fill="#14532D"/>
  <ellipse cx="64" cy="92" rx="7" ry="9" fill="#14532D"/>
  <ellipse cx="96" cy="92" rx="7" ry="9" fill="#14532D"/>
  <path d="M62 108C67 114 73 117 80 117C87 117 93 114 98 108" stroke="#14532D" stroke-width="5" stroke-linecap="round"/>
  <circle cx="52" cy="98" r="5" fill="#BBF7D0"/>
  <circle cx="108" cy="98" r="5" fill="#BBF7D0"/>
  <circle cx="122" cy="40" r="8" fill="#FEF3C7"/>
  <defs>
    <linearGradient id="bg" x1="18" y1="16" x2="144" y2="146" gradientUnits="userSpaceOnUse">
      <stop stop-color="#14B8A6"/>
      <stop offset="1" stop-color="#166534"/>
    </linearGradient>
  </defs>
</svg>
