<svg width="160" height="160" viewBox="0 0 160 160" fill="none" xmlns="http://www.w3.org/2000/svg">
  <rect width="160" height="160" rx="40" fill="url(#bg)"/>
  <path d="M80 38C108 38 126 61 126 93C126 121 106 126 80 126C54 126 34 121 34 93C34 61 52 38 80 38Z" fill="#7C3AED"/>
  <ellipse cx="62" cy="78" rx="16" ry="18" fill="#FEF3C7"/>
  <ellipse cx="98" cy="78" rx="16" ry="18" fill="#FEF3C7"/>
  <circle cx="62" cy="78" r="9" fill="#111827"/>
  <circle cx="98" cy="78" r="9" fill="#111827"/>
  <circle cx="62" cy="78" r="3" fill="#FFF"/>
  <circle cx="98" cy="78" r="3" fill="#FFF"/>
  <path d="M80 86L89 96H71L80 86Z" fill="#F59E0B"/>
  <path d="M65 104C69 109 74 111.5 80 111.5C86 111.5 91 109 95 104" stroke="#E9D5FF" stroke-width="4" stroke-linecap="round"/>
  <path d="M44 62L58 48" stroke="#C4B5FD" stroke-width="8" stroke-linecap="round"/>
  <path d="M116 62L102 48" stroke="#C4B5FD" stroke-width="8" stroke-linecap="round"/>
  <path d="M53 55H71" stroke="#DBEAFE" stroke-width="5" stroke-linecap="round"/>
  <path d="M89 55H107" stroke="#DBEAFE" stroke-width="5" stroke-linecap="round"/>
  <defs>
    <linearGradient id="bg" x1="18" y1="18" x2="142" y2="144" gradientUnits="userSpaceOnUse">
      <stop stop-color="#312E81"/>
      <stop offset="1" stop-color="#0F172A"/>
    </linearGradient>
  </defs>
</svg>
