<svg width="160" height="160" viewBox="0 0 160 160" fill="none" xmlns="http://www.w3.org/2000/svg">
  <rect width="160" height="160" rx="40" fill="url(#bg)"/>
  <path d="M39 56L58 36L66 62L39 56Z" fill="#FFD166"/>
  <path d="M121 56L102 36L94 62L121 56Z" fill="#FFD166"/>
  <ellipse cx="80" cy="92" rx="45" ry="39" fill="#FFF4EF"/>
  <ellipse cx="62" cy="87" rx="8" ry="11" fill="#1E1B4B"/>
  <ellipse cx="98" cy="87" rx="8" ry="11" fill="#1E1B4B"/>
  <ellipse cx="61" cy="91" rx="2.5" ry="3.5" fill="#FFF"/>
  <ellipse cx="97" cy="91" rx="2.5" ry="3.5" fill="#FFF"/>
  <path d="M80 97C72 97 66 102 66 109C66 116 72 121 80 121C88 121 94 116 94 109C94 102 88 97 80 97Z" fill="#FFBDD1"/>
  <path d="M80 102L85 108H75L80 102Z" fill="#D90452"/>
  <path d="M69 112C72.5 115 76.5 116.5 80 116.5C83.5 116.5 87.5 115 91 112" stroke="#D90452" stroke-width="4" stroke-linecap="round"/>
  <circle cx="52" cy="102" r="5" fill="#FFB0BC"/>
  <circle cx="108" cy="102" r="5" fill="#FFB0BC"/>
  <path d="M80 48L84.1145 56.3356L93.3137 57.6726L86.6569 64.1607L88.2289 73.3274L80 69L71.7711 73.3274L73.3431 64.1607L66.6863 57.6726L75.8855 56.3356L80 48Z" fill="#FFF1A8"/>
  <defs>
    <linearGradient id="bg" x1="20" y1="18" x2="138" y2="146" gradientUnits="userSpaceOnUse">
      <stop stop-color="#FB7185"/>
      <stop offset="1" stop-color="#F59E0B"/>
    </linearGradient>
  </defs>
</svg>
